<?xml version="1.0" encoding="utf-8"?>
<!-- Generator: Adobe Illustrator 21.0.0, SVG Export Plug-In . SVG Version: 6.00 Build 0)  -->
<svg version="1.1" id="object" xmlns="http://www.w3.org/2000/svg" xmlns:xlink="http://www.w3.org/1999/xlink" x="0px" y="0px"
	 viewBox="0 0 65.8 87.3" style="enable-background:new 0 0 65.8 87.3;" xml:space="preserve">
<style type="text/css">
	.st0{fill:#FFFFFF;}
</style>
<path class="st0" d="M0.1,0L0,87.2l65.6,0.1l0.1-87.2L0.1,0z M37.6,83l-8.7,0l0-6.2l8.7,0L37.6,83z M38.8,54.7L8,54.7l0-5l30.8,0
	L38.8,54.7z M57.8,44.6L8,44.6l0-5l49.8,0.1L57.8,44.6z M57.8,34.5L8,34.4l0-5l49.8,0.1L57.8,34.5z M57.8,24.4L8,24.3l0-5l49.8,0.1
	L57.8,24.4z M57.8,14.3L8,14.2l0-5l49.8,0.1L57.8,14.3z"/>
</svg>
