<?xml version="1.0" encoding="utf-8"?>
<!-- Generator: Adobe Illustrator 21.0.0, SVG Export Plug-In . SVG Version: 6.00 Build 0)  -->
<svg version="1.1" id="Слой_1" xmlns="http://www.w3.org/2000/svg" xmlns:xlink="http://www.w3.org/1999/xlink" x="0px" y="0px"
	 viewBox="0 0 223.7 182.2" style="enable-background:new 0 0 223.7 182.2;" xml:space="preserve">
<style type="text/css">
	.st0{fill:#FFFFFF;}
</style>
<g id="F7AYBG_1_">
	<g>
		<path class="st0" d="M0,91.1c4,0.6,5.7-1.4,6.8-5.2C14.1,61.1,21.6,36.3,29,11.5c8.2,0.2,8.3,0.2,10.5,7.5
			c6.7,22.3,13.4,44.6,20,66.9c1,3.3,1.8,6.1,6,5.2c0,18.2-19.4,33.2-38.1,29.6C13.6,118,4.8,109.6,1,95.9c-0.3-0.9-0.7-1.8-1-2.7
			C0,92.5,0,91.8,0,91.1z M13.4,90.6c13.7,0,26.3,0,39.5,0C46.4,68.7,40,47.4,33.6,26.1c-0.3,0-0.7,0-1,0
			C26.2,47.4,19.9,68.7,13.4,90.6z"/>
		<path class="st0" d="M104.7,154.5c0-10.2,0-19.5,0-28.8c0-28.3,0.1-56.7-0.2-85c0-2.4-1.3-5.4-3-7.1c-7.1-7.4-7.4-18.5-0.2-25.6
			c6.9-6.8,18.4-6.6,25.1,0.5c6.7,7.1,6.3,18.2-0.8,25.2c-1.4,1.4-2.7,3.5-2.7,5.3c-0.2,37.5-0.1,75-0.1,112.5
			c0,0.8,0.1,1.6,0.3,2.8c1.9,0.1,3.7,0.2,5.5,0.2c16,0,32,0.2,48-0.1c5.2-0.1,7.9,2,8.7,6.8c0.5,2.9,0.9,5.9,0.8,8.9
			c-0.3,9.9-2.6,12.1-12.5,12.1c-40.8,0-81.7,0-122.5,0c-6.3,0-7.8-1.1-9.1-7.4c-0.5-2.3-0.8-4.6-0.8-6.9c0.1-11,2.5-13.4,13.4-13.4
			c14.7,0,29.3,0,44,0C100.3,154.5,102.1,154.5,104.7,154.5z M123.1,20.9c0.2-5.3-3.8-9.6-9.1-9.8c-5.4-0.2-10,4.1-10,9.5
			c0,5.1,4.4,9.5,9.4,9.6C118.7,30.2,122.9,26.1,123.1,20.9z"/>
		<path class="st0" d="M187.3,39.4c5.8-0.7,8.9,0.6,10.5,6.5c6.3,22.5,13.4,44.9,20,67.3c0.9,3.1,1.3,6.5,5.8,5.2
			c1,15-13.8,29.3-30.8,30.5c-16.7,1.2-32.7-12.6-33.9-29.7c5.7,0.1,5.9-4.7,7-8.6C173,86.9,180.1,63.2,187.3,39.4z M191.9,53.5
			c-0.3,0-0.6,0-0.9,0c-6.4,21.4-12.8,42.8-19.3,64.7c13.4,0,26.2,0,39.5,0C204.7,96.4,198.3,75,191.9,53.5z"/>
		<path class="st0" d="M92.9,10.3c-0.6,1.9-1.2,3.6-1.9,5.7c-14.8-2.4-29.6-4.9-44.3-7.3C41.4,7.8,36,7,30.6,6
			c-2.3-0.4-5.3-0.8-4.3-4c0.3-1.1,3.4-2.2,5-2c19.6,3,39.1,6.3,58.6,9.5C90.9,9.7,91.8,10,92.9,10.3z"/>
		<path class="st0" d="M136.1,25.2c0.2-2.2,0.4-3.8,0.6-6.1c8.2,1.4,16.1,2.7,24.1,4c12,2,24,3.9,35.9,6.1c1.6,0.3,2.9,2.3,4.4,3.4
			c-1.7,0.9-3.5,2.7-4.9,2.4C176.2,31.9,156.3,28.5,136.1,25.2z"/>
	</g>
</g>
</svg>
