<?xml version="1.0" encoding="utf-8"?>
<!-- Generator: Adobe Illustrator 21.0.0, SVG Export Plug-In . SVG Version: 6.00 Build 0)  -->
<svg version="1.1" id="object" xmlns="http://www.w3.org/2000/svg" xmlns:xlink="http://www.w3.org/1999/xlink" x="0px" y="0px"
	 viewBox="0 0 38.5 51.9" style="enable-background:new 0 0 38.5 51.9;" xml:space="preserve">
<style type="text/css">
	.st0{fill:#FFFFFF;}
</style>
<path class="st0" d="M35.3,0h-32C1.5,0,0,1.5,0,3.3v45.3c0,1.8,1.5,3.3,3.3,3.3h32c1.8,0,3.3-1.5,3.3-3.3V3.3
	C38.5,1.5,37.1,0,35.3,0z M10.2,46.5c0,0.5-0.4,0.9-0.9,0.9H4.6c-0.5,0-0.9-0.4-0.9-0.9v-4.8c0-0.5,0.4-0.9,0.9-0.9h4.8
	c0.5,0,0.9,0.4,0.9,0.9V46.5z M10.2,38.8c0,0.5-0.4,0.9-0.9,0.9H4.6c-0.5,0-0.9-0.4-0.9-0.9v-4.8c0-0.5,0.4-0.9,0.9-0.9h4.8
	c0.5,0,0.9,0.4,0.9,0.9V38.8z M10.2,31.1c0,0.5-0.4,0.9-0.9,0.9H4.6c-0.5,0-0.9-0.4-0.9-0.9v-4.8c0-0.5,0.4-0.9,0.9-0.9h4.8
	c0.5,0,0.9,0.4,0.9,0.9V31.1z M10.2,23.5c0,0.5-0.4,0.9-0.9,0.9H4.6c-0.5,0-0.9-0.4-0.9-0.9v-4.8c0-0.5,0.4-0.9,0.9-0.9h4.8
	c0.5,0,0.9,0.4,0.9,0.9V23.5z M18.4,46.5c0,0.5-0.4,0.9-0.9,0.9h-4.8c-0.5,0-0.9-0.4-0.9-0.9v-4.8c0-0.5,0.4-0.9,0.9-0.9h4.8
	c0.5,0,0.9,0.4,0.9,0.9V46.5z M18.4,38.8c0,0.5-0.4,0.9-0.9,0.9h-4.8c-0.5,0-0.9-0.4-0.9-0.9v-4.8c0-0.5,0.4-0.9,0.9-0.9h4.8
	c0.5,0,0.9,0.4,0.9,0.9V38.8z M18.4,31.1c0,0.5-0.4,0.9-0.9,0.9h-4.8c-0.5,0-0.9-0.4-0.9-0.9v-4.8c0-0.5,0.4-0.9,0.9-0.9h4.8
	c0.5,0,0.9,0.4,0.9,0.9V31.1z M18.4,23.5c0,0.5-0.4,0.9-0.9,0.9h-4.8c-0.5,0-0.9-0.4-0.9-0.9v-4.8c0-0.5,0.4-0.9,0.9-0.9h4.8
	c0.5,0,0.9,0.4,0.9,0.9V23.5z M26.6,46.5c0,0.5-0.4,0.9-0.9,0.9h-4.8c-0.5,0-0.9-0.4-0.9-0.9v-4.8c0-0.5,0.4-0.9,0.9-0.9h4.8
	c0.5,0,0.9,0.4,0.9,0.9V46.5z M26.6,38.8c0,0.5-0.4,0.9-0.9,0.9h-4.8c-0.5,0-0.9-0.4-0.9-0.9v-4.8c0-0.5,0.4-0.9,0.9-0.9h4.8
	c0.5,0,0.9,0.4,0.9,0.9V38.8z M26.6,31.1c0,0.5-0.4,0.9-0.9,0.9h-4.8c-0.5,0-0.9-0.4-0.9-0.9v-4.8c0-0.5,0.4-0.9,0.9-0.9h4.8
	c0.5,0,0.9,0.4,0.9,0.9V31.1z M26.6,23.5c0,0.5-0.4,0.9-0.9,0.9h-4.8c-0.5,0-0.9-0.4-0.9-0.9v-4.8c0-0.5,0.4-0.9,0.9-0.9h4.8
	c0.5,0,0.9,0.4,0.9,0.9V23.5z M34.7,36.7L34.7,36.7v9.8c0,0.5-0.4,0.9-0.9,0.9H29c-0.5,0-0.9-0.4-0.9-0.9v-7.7v-2.1v-2.6
	c0-0.5,0.4-0.9,0.9-0.9h4.8c0.5,0,0.9,0.4,0.9,0.9V36.7z M34.7,31.1c0,0.5-0.4,0.9-0.9,0.9H29c-0.5,0-0.9-0.4-0.9-0.9v-4.8
	c0-0.5,0.4-0.9,0.9-0.9h4.8c0.5,0,0.9,0.4,0.9,0.9V31.1z M34.7,23.5c0,0.5-0.4,0.9-0.9,0.9H29c-0.5,0-0.9-0.4-0.9-0.9v-4.8
	c0-0.5,0.4-0.9,0.9-0.9h4.8c0.5,0,0.9,0.4,0.9,0.9V23.5z M35.7,12.4c0,0.5-0.4,1-1,1H3.8c-0.5,0-1-0.4-1-1V7.3c0-0.5,0.4-1,1-1h30.8
	c0.5,0,1,0.4,1,1V12.4z"/>
</svg>
