<?xml version="1.0" encoding="utf-8"?>
<!-- Generator: Adobe Illustrator 21.0.0, SVG Export Plug-In . SVG Version: 6.00 Build 0)  -->
<svg version="1.1" id="Isolation_Mode" xmlns="http://www.w3.org/2000/svg" xmlns:xlink="http://www.w3.org/1999/xlink" x="0px"
	 y="0px" viewBox="0 0 187 137.7" style="enable-background:new 0 0 187 137.7;" xml:space="preserve">
<style type="text/css">
	.st0{fill:#FFFFFF;}
</style>
<g>
	<path class="st0" d="M186.9,137.7c-27.9,0-55.8,0-84.4,0c0.4-3.5,0.7-6.9,1.2-11.1c-3.1,1.2-5.8,2.1-8.5,3.2
		c-4.2,1.7-7.5,0.6-10-3.1c-6.6-10.2-13.3-20.3-19.8-30.6c-2.7-4.2-2-8.1,1.5-10.6c3.6-2.5,7.9-1.6,10.7,2.6c5,7.5,10,15,14.7,22.6
		c1.8,2.9,3.4,3.4,6.4,2c8.5-4,17.2-7.8,25.7-11.8c4.3-2,8-3,13.1-1.6c5.3,1.4,11.3-0.1,17-0.4c1.6-0.1,3.3-1,4.7-0.7
		C174.5,102,188.2,121.4,186.9,137.7z"/>
	<path class="st0" d="M144.8,51.5c12.9-0.1,23.2,10.1,23.2,23.1c0,12.8-10.5,23.3-23.2,23.2c-12.5-0.1-22.9-10.4-23-22.9
		C121.6,62,132,51.5,144.8,51.5z"/>
	<path class="st0" d="M142.8,6C99.5,6,61,6,18.1,6c0,35.5,0,66.8,0,102.8c6.7,0,11.3,0,17.9,0c9.5,0,19-0.1,28.5,0.1
		c1.9,0,3.7,3.4,5.6,4.1c-0.2,0.5-0.3,1.1-0.5,1.6c-19.2,0-38.3,0-57.8,0c0-38,0-76.1,0-114.6C57.4,0,103.1,0,149,0
		c0,15.1,0,30,0,45c-4.1,0.7-6.2,0.7-6.2-3.1c-0.1-10.7,0-21.3,0-32C142.8,8,142.8,8.2,142.8,6z"/>
	<path class="st0" d="M0,128.9c0-3.8,0-7.4,0-11.9c2,0,3.9,0,5.8,0c19.6,0,39.3,0.2,58.9-0.2c5.6-0.1,9.1,1.4,11.4,6.4
		c0.8,1.8,2.1,3.4,3.5,5.6C52.8,128.9,26.5,128.9,0,128.9z"/>
	<path class="st0" d="M62,29.7c0-1.7,0-3.3,0-5.2c16.4,0,32.7,0,49.3,0c0,1.7,0,3.3,0,5.2C95,29.7,78.6,29.7,62,29.7z"/>
	<path class="st0" d="M111.4,40.5c0,1.9,0,3.4,0,5.2c-16.5,0-32.9,0-49.5,0c0-1.8,0-3.3,0-5.2C78.5,40.5,94.7,40.5,111.4,40.5z"/>
	<path class="st0" d="M111.4,56.7c0,1.9,0,3.3,0,5.1c-16.5,0-32.8,0-49.4,0c0-1.8,0-3.3,0-5.1C78.5,56.7,94.7,56.7,111.4,56.7z"/>
	<path class="st0" d="M65.7,84.8c0.8-0.7,1.6-1.2,2.5-1.5L47.1,47.1l-3.7,2.2l21.4,36.6C65,85.5,65.3,85.2,65.7,84.8z"/>
</g>
</svg>
