<?xml version="1.0" encoding="utf-8"?>
<!-- Generator: Adobe Illustrator 21.0.0, SVG Export Plug-In . SVG Version: 6.00 Build 0)  -->
<svg version="1.1" id="Слой_1" xmlns="http://www.w3.org/2000/svg" xmlns:xlink="http://www.w3.org/1999/xlink" x="0px" y="0px"
	 viewBox="0 0 44.8 48.1" style="enable-background:new 0 0 44.8 48.1;" xml:space="preserve">
<style type="text/css">
	.st0{fill:#FFFFFF;}
</style>
<g>
	<g>
		<g>
			<rect x="1.8" y="12.2" transform="matrix(0.67 -0.7424 0.7424 0.67 -4.4214 19.0721)" class="st0" width="34.9" height="4.7"/>
		</g>
	</g>
	<g>
		<g>
			<rect x="14" y="23.2" transform="matrix(0.67 -0.7423 0.7423 0.67 -8.5638 31.7444)" class="st0" width="34.9" height="4.7"/>
		</g>
	</g>
	<g>
		<g>
			
				<rect x="7.9" y="15.3" transform="matrix(0.6701 -0.7423 0.7423 0.6701 -6.4934 25.4067)" class="st0" width="34.9" height="9.4"/>
		</g>
	</g>
	<g>
		<g>
			<path class="st0" d="M1.5,41.8L0,48.1L6.1,46c-0.3-1-0.9-1.9-1.8-2.7C3.5,42.5,2.5,42,1.5,41.8z"/>
		</g>
	</g>
	<g>
		<g>
			<path class="st0" d="M1.9,40.4c1.2,0.3,2.4,0.9,3.4,1.8c1,0.9,1.7,2,2.1,3.2l12.9-4.5L5.1,27.1L1.9,40.4z"/>
		</g>
	</g>
</g>
</svg>
