<?xml version="1.0" encoding="utf-8"?>
<!-- Generator: Adobe Illustrator 21.0.0, SVG Export Plug-In . SVG Version: 6.00 Build 0)  -->
<svg version="1.1" id="object" xmlns="http://www.w3.org/2000/svg" xmlns:xlink="http://www.w3.org/1999/xlink" x="0px" y="0px"
	 viewBox="0 0 92.1 66.8" style="enable-background:new 0 0 92.1 66.8;" xml:space="preserve">
<style type="text/css">
	.st0{fill:#FFFFFF;}
</style>
<g>
	<polygon class="st0" points="44.4,37.9 0,19 45.6,0 89.6,18.5 	"/>
	<g>
		<g>
			<rect x="85.9" y="17.9" class="st0" width="2.8" height="27.8"/>
			<ellipse class="st0" cx="87.3" cy="46.6" rx="4.4" ry="4.2"/>
			<g>
				<path class="st0" d="M85.2,48c0,0-3.5,6.9-2.1,17.5h5.1V47C88.2,47,85.2,48.5,85.2,48z"/>
				<path class="st0" d="M89.7,48c0,0,3.5,6.9,2.1,17.5h-5V47C86.8,47,89.7,48.5,89.7,48z"/>
			</g>
		</g>
	</g>
	<path class="st0" d="M69.7,30.3c0,0.2-21.8,9.7-26,11.5c-4.2-1.8-26-11.3-26-11.5v28.2c7,7,20.8,8.2,25.3,8.3v0c0,0,0.3,0,0.7,0
		c0.4,0,0.7,0,0.7,0v0c4.4-0.2,18.2-1.3,25.3-8.3V30.3z"/>
</g>
</svg>
