<?xml version="1.0" encoding="utf-8"?>
<!-- Generator: Adobe Illustrator 21.0.0, SVG Export Plug-In . SVG Version: 6.00 Build 0)  -->
<svg version="1.1" id="object" xmlns="http://www.w3.org/2000/svg" xmlns:xlink="http://www.w3.org/1999/xlink" x="0px" y="0px"
	 viewBox="0 0 63.8 69.2" style="enable-background:new 0 0 63.8 69.2;" xml:space="preserve">
<style type="text/css">
	.st0{fill:#FFFFFF;}
</style>
<g>
	<g>
		<path class="st0" d="M14.9,17.2c0.3,0.3,0.6,0.4,1,0.5c0.5,0,0.9-0.1,1.3-0.5c0.6-0.6,0.6-1.7,0-2.3l-1.3-1.3l-4.3-4.3
			C11,8.7,10,8.7,9.3,9.3c-0.6,0.6-0.6,1.7,0,2.3L14.9,17.2z"/>
		<path class="st0" d="M31.8,11.1c0,0,0.1,0,0.1,0c0.9,0,1.6-0.7,1.6-1.6V1.6c0-0.9-0.7-1.6-1.6-1.6c0,0-0.1,0-0.1,0
			c-0.8,0.1-1.5,0.8-1.5,1.6v7.9C30.2,10.4,30.9,11.1,31.8,11.1z"/>
		<path class="st0" d="M47.7,17.7c0.4,0,0.8-0.2,1.1-0.5l5.6-5.6c0.6-0.6,0.6-1.7,0-2.3c-0.6-0.6-1.7-0.6-2.3,0l-4.4,4.4l-1.2,1.2
			c-0.6,0.6-0.6,1.7,0,2.3C46.9,17.5,47.3,17.7,47.7,17.7z"/>
		<path class="st0" d="M11.1,31.9c0-0.9-0.7-1.6-1.6-1.6H1.6C0.7,30.2,0,31,0,31.9c0,0.9,0.7,1.6,1.6,1.6h7.9
			C10.4,33.5,11.1,32.8,11.1,31.9z"/>
		<path class="st0" d="M62.1,30.2h-7.9c-0.9,0-1.6,0.7-1.6,1.6c0,0.9,0.7,1.6,1.6,1.6h7.9c0.9,0,1.6-0.7,1.6-1.6
			C63.8,31,63,30.2,62.1,30.2z"/>
		<path class="st0" d="M48.9,46.5c-0.3-0.3-0.7-0.5-1.1-0.5c-0.4,0-0.9,0.2-1.2,0.5c-0.6,0.6-0.6,1.7,0,2.3l1.2,1.2l4.4,4.4
			c0.6,0.6,1.7,0.6,2.3,0c0.6-0.6,0.6-1.7,0-2.3L48.9,46.5z"/>
		<path class="st0" d="M15.9,46.1c-0.4,0-0.7,0.2-1,0.5l-5.6,5.6c-0.6,0.6-0.6,1.7,0,2.3c0.6,0.6,1.7,0.6,2.3,0l4.3-4.3l1.3-1.3
			c0.6-0.6,0.6-1.7,0-2.3C16.9,46.2,16.4,46,15.9,46.1z"/>
		<path class="st0" d="M49.4,31.9c0-2.7-0.6-5.2-1.7-7.5c-2.8-6-8.9-10.2-16-10.2l0,0c-7,0-13,4-15.8,9.9c-1.1,2.3-1.8,5-1.8,7.7
			c0,2.8,0.6,5.4,1.8,7.7c1.4,2.9,3.6,5.3,6.2,7v13.9c0,4.8,3.9,8.7,8.7,8.7h0.9H33c4.8,0,8.7-3.9,8.7-8.7V46.4
			c2.6-1.8,4.7-4.2,6-7.1C48.8,37.1,49.4,34.5,49.4,31.9z M38.9,43.9c-0.5,0.3-0.9,0.9-0.9,1.6v8.1h-6.3h-6v-7.9
			c0-0.7-0.3-1.2-0.9-1.6c-4.2-2.4-7.1-6.9-7.1-12.2c0-3.9,1.6-7.4,4.1-9.9c2.5-2.5,6-4.1,9.9-4.1l0,0c3.9,0,7.4,1.6,9.9,4.1
			c2.5,2.5,4.1,6,4.1,9.9C45.7,37,43,41.4,38.9,43.9z"/>
	</g>
</g>
</svg>
